HIERARCHY
ROOT hip
{
  OFFSET 0.00112043 5.09927 -9.65472
  CHANNELS 6 Xposition Yposition Zposition Zrotation Xrotation Yrotation
  JOINT abdomen
  {
    OFFSET 0 -1.186 -1.5018
    CHANNELS 3 Zrotation Xrotation Yrotation
    JOINT abdomen2
    {
      OFFSET 0 9.964 0.2134
      CHANNELS 3 Zrotation Xrotation Yrotation
      JOINT chest
      {
        OFFSET 0 13.134 -3.2573
        CHANNELS 3 Zrotation Xrotation Yrotation
        JOINT neck
        {
          OFFSET 0 20.686 -1.6905
          CHANNELS 3 Zrotation Xrotation Yrotation
          JOINT head
          {
            OFFSET 0 7.238 -0.1237
            CHANNELS 3 Zrotation Xrotation Yrotation
            End Site
            {
              OFFSET 0 0 0
            }
          }
        }
        JOINT lCollar
        {
          OFFSET 1.7069 20.075 5.0056
          CHANNELS 3 Zrotation Xrotation Yrotation
          JOINT lShldr
          {
            OFFSET 13.6458 -0.047 -4.849
            CHANNELS 3 Zrotation Xrotation Yrotation
            JOINT lForeArm
            {
              OFFSET 28.3255 -0.9759 2.2888
              CHANNELS 3 Zrotation Xrotation Yrotation
              JOINT lHand
              {
                OFFSET 22.1583 -0.53 10.8316
                CHANNELS 3 Zrotation Xrotation Yrotation
                JOINT lThumb1
                {
                  OFFSET 0.786 0.112 2.5817
                  CHANNELS 3 Zrotation Xrotation Yrotation
                  JOINT lThumb2
                  {
                    OFFSET 0.3601 -0.878 4.2331
                    CHANNELS 3 Zrotation Xrotation Yrotation
                    JOINT lThumb2_End
                    {
                      OFFSET 1.8127 -1.216 2.2227
                      CHANNELS 3 Zrotation Xrotation Yrotation
                      End Site
                      {
                        OFFSET 0.0181 -0.0122 0.0222
                      }
                    }
                  }
                }
                JOINT lCarpal1
                {
                  OFFSET 0.9571 1.114 1.7695
                  CHANNELS 3 Zrotation Xrotation Yrotation
                  JOINT lIndex1
                  {
                    OFFSET 4.1246 0.487 4.1451
                    CHANNELS 3 Zrotation Xrotation Yrotation
                    JOINT lIndex2
                    {
                      OFFSET 3.4052 -1.454 2.7682
                      CHANNELS 3 Zrotation Xrotation Yrotation
                      JOINT lIndex2_End
                      {
                        OFFSET 1.4531 -1.795 1.2713
                        CHANNELS 3 Zrotation Xrotation Yrotation
                        End Site
                        {
                          OFFSET 0.0145 -0.0179 0.0127
                        }
                      }
                    }
                  }
                  JOINT lMid1
                  {
                    OFFSET 5.6954 0.21 2.1184
                    CHANNELS 3 Zrotation Xrotation Yrotation
                    JOINT lMid2
                    {
                      OFFSET 3.9766 -1.54 2.3863
                      CHANNELS 3 Zrotation Xrotation Yrotation
                      JOINT lMid2_End
                      {
                        OFFSET 1.4042 -1.926 1.125
                        CHANNELS 3 Zrotation Xrotation Yrotation
                        End Site
                        {
                          OFFSET 0.014 -0.0193 0.0113
                        }
                      }
                    }
                  }
                }
                JOINT lCarpal2
                {
                  OFFSET 2.0956 0.66 -0.3894
                  CHANNELS 3 Zrotation Xrotation Yrotation
                  JOINT lRing1
                  {
                    OFFSET 5.0395 -0.09 2.4971
                    CHANNELS 3 Zrotation Xrotation Yrotation
                    JOINT lRing2
                    {
                      OFFSET 3.7921 -1.552 1.4806
                      CHANNELS 3 Zrotation Xrotation Yrotation
                      JOINT lRing2_End
                      {
                        OFFSET 1.4655 -1.808 0.9609
                        CHANNELS 3 Zrotation Xrotation Yrotation
                        End Site
                        {
                          OFFSET 0.0147 -0.0181 0.0096
                        }
                      }
                    }
                  }
                  JOINT lPinky1
                  {
                    OFFSET 4.9141 -1.269 0.3591
                    CHANNELS 3 Zrotation Xrotation Yrotation
                    JOINT lPinky2
                    {
                      OFFSET 3.1477 -1.685 0.8462
                      CHANNELS 3 Zrotation Xrotation Yrotation
                      JOINT lPinky2_End
                      {
                        OFFSET 0.8055 -1.585 0.7955
                        CHANNELS 3 Zrotation Xrotation Yrotation
                        End Site
                        {
                          OFFSET 0.0081 -0.0158 0.008
                        }
                      }
                    }
                  }
                }
              }
            }
          }
        }
        JOINT rCollar
        {
          OFFSET -1.7069 20.075 5.0056
          CHANNELS 3 Zrotation Xrotation Yrotation
          JOINT rShldr
          {
            OFFSET -13.6458 -0.047 -4.849
            CHANNELS 3 Zrotation Xrotation Yrotation
            JOINT rForeArm
            {
              OFFSET -28.3255 -0.9759 2.2888
              CHANNELS 3 Zrotation Xrotation Yrotation
              JOINT rHand
              {
                OFFSET -22.1583 -0.53 10.8316
                CHANNELS 3 Zrotation Xrotation Yrotation
                JOINT rThumb1
                {
                  OFFSET -0.786 0.112 2.5817
                  CHANNELS 3 Zrotation Xrotation Yrotation
                  JOINT rThumb2
                  {
                    OFFSET -0.3601 -0.878 4.2331
                    CHANNELS 3 Zrotation Xrotation Yrotation
                    JOINT rThumb2_End
                    {
                      OFFSET -1.8127 -1.216 2.2227
                      CHANNELS 3 Zrotation Xrotation Yrotation
                      End Site
                      {
                        OFFSET -0.0181 -0.0122 0.0222
                      }
                    }
                  }
                }
                JOINT rCarpal1
                {
                  OFFSET -0.9571 1.114 1.7695
                  CHANNELS 3 Zrotation Xrotation Yrotation
                  JOINT rIndex1
                  {
                    OFFSET -4.1246 0.487 4.1451
                    CHANNELS 3 Zrotation Xrotation Yrotation
                    JOINT rIndex2
                    {
                      OFFSET -3.4052 -1.454 2.7682
                      CHANNELS 3 Zrotation Xrotation Yrotation
                      JOINT rIndex2_End
                      {
                        OFFSET -1.4531 -1.795 1.2713
                        CHANNELS 3 Zrotation Xrotation Yrotation
                        End Site
                        {
                          OFFSET -0.0145 -0.018 0.0127
                        }
                      }
                    }
                  }
                  JOINT rMid1
                  {
                    OFFSET -5.6954 0.21 2.1184
                    CHANNELS 3 Zrotation Xrotation Yrotation
                    JOINT rMid2
                    {
                      OFFSET -3.9766 -1.54 2.3863
                      CHANNELS 3 Zrotation Xrotation Yrotation
                      JOINT rMid2_End
                      {
                        OFFSET -1.4042 -1.926 1.125
                        CHANNELS 3 Zrotation Xrotation Yrotation
                        End Site
                        {
                          OFFSET -0.014 -0.0193 0.0113
                        }
                      }
                    }
                  }
                }
                JOINT rCarpal2
                {
                  OFFSET -2.0956 0.66 -0.3894
                  CHANNELS 3 Zrotation Xrotation Yrotation
                  JOINT rRing1
                  {
                    OFFSET -5.0395 -0.09 2.4971
                    CHANNELS 3 Zrotation Xrotation Yrotation
                    JOINT rRing2
                    {
                      OFFSET -3.7921 -1.552 1.4806
                      CHANNELS 3 Zrotation Xrotation Yrotation
                      JOINT rRing2_End
                      {
                        OFFSET -1.4655 -1.808 0.9609
                        CHANNELS 3 Zrotation Xrotation Yrotation
                        End Site
                        {
                          OFFSET -0.0147 -0.0181 0.0096
                        }
                      }
                    }
                  }
                  JOINT rPinky1
                  {
                    OFFSET -4.9141 -1.269 0.3592
                    CHANNELS 3 Zrotation Xrotation Yrotation
                    JOINT rPinky2
                    {
                      OFFSET -3.1477 -1.685 0.8462
                      CHANNELS 3 Zrotation Xrotation Yrotation
                      JOINT rPinky2_End
                      {
                        OFFSET -0.8055 -1.585 0.7955
                        CHANNELS 3 Zrotation Xrotation Yrotation
                        End Site
                        {
                          OFFSET -0.0081 -0.0158 0.008
                        }
                      }
                    }
                  }
                }
              }
            }
          }
        }
      }
    }
  }
  JOINT lThigh
  {
    OFFSET 8.367 -8.2066 0.5982
    CHANNELS 3 Zrotation Xrotation Yrotation
    JOINT lShin
    {
      OFFSET 2.1923 -43.463 -0.4932
      CHANNELS 3 Zrotation Xrotation Yrotation
      JOINT lFoot
      {
        OFFSET 0.7333 -45.8593 -2.6451
        CHANNELS 3 Zrotation Xrotation Yrotation
        End Site
        {
          OFFSET 2.6618 -4.2699 12.3931
        }
      }
    }
  }
  JOINT rThigh
  {
    OFFSET -8.367 -8.2066 0.5982
    CHANNELS 3 Zrotation Xrotation Yrotation
    JOINT rShin
    {
      OFFSET -2.1923 -43.463 -0.4931
      CHANNELS 3 Zrotation Xrotation Yrotation
      JOINT rFoot
      {
        OFFSET -0.7333 -45.8593 -2.6451
        CHANNELS 3 Zrotation Xrotation Yrotation
        End Site
        {
          OFFSET -2.6618 -4.2699 12.3931
        }
      }
    }
  }
}
MOTION
Frames:	4
Frame Time:	0.0333333
0.000865285 32.7888 -55.0259 0 70.9928 -0 -3.49328 5.21403 0.218796 -7.05054 10.4048 0.762489 -7.05054 10.4047 0.762486 -10.9116 -45.962 -7.70423 -17.7488 -5.7556 -2.98124 3.54757 -34.3358 -2.51624 -77.7274 -15.0726 -75.233 60.434 -7.18593 -84.0931 -47.5831 -38.642 -0.61219 -1.59028e-015 5.56597e-015 6.36111e-015 0 7.95139e-015 -0 1.59028e-015 9.54166e-015 3.18055e-015 -1.59028e-015 -1.59028e-015 -0 3.18055e-015 7.15625e-015 3.18055e-015 1.59028e-015 7.15625e-015 -3.18055e-015 -1.32417e-030 1.19271e-014 6.36111e-015 3.18055e-015 7.15625e-015 3.18055e-015 1.59028e-015 7.15625e-015 -3.18055e-015 -1.32417e-030 1.19271e-014 6.36111e-015 -1.59028e-015 -1.59028e-015 -0 3.18055e-015 7.15625e-015 3.18055e-015 1.59028e-015 7.15625e-015 -3.18055e-015 -1.32417e-030 1.19271e-014 6.36111e-015 3.18055e-015 7.15625e-015 3.18055e-015 1.59028e-015 7.15625e-015 -3.18055e-015 -1.32417e-030 1.19271e-014 6.36111e-015 -1.41126 -4.34434 22.1126 82.4895 -18.2874 83.3994 -63.934 -33.115 65.5914 15.3274 -23.6411 -23.6709 -3.2054e-015 3.33508e-016 -0 -4.05255e-006 -1.03518e-006 2.33968e-006 -2.79463e-015 -1.33442e-015 6.36111e-015 -3.2054e-015 1.49477e-015 -0 3.15338e-015 4.296e-015 9.54166e-015 -4.05255e-006 -1.03518e-006 2.33968e-006 -3.80176e-015 -1.01605e-015 -3.18055e-015 3.15338e-015 4.296e-015 9.54166e-015 -4.05255e-006 -1.03518e-006 2.33968e-006 -3.80176e-015 -1.01605e-015 -3.18055e-015 -3.2054e-015 1.49477e-015 -0 3.15338e-015 4.296e-015 9.54166e-015 -4.05255e-006 -1.03518e-006 2.33968e-006 -3.80176e-015 -1.01605e-015 -3.18055e-015 3.15338e-015 4.296e-015 9.54166e-015 -4.05255e-006 -1.03518e-006 2.33968e-006 -3.80176e-015 -1.01605e-015 -3.18055e-015 102.985 -60.627 91.6548 -148.23 64.8957 159.682 12.0524 39.5652 5.47371 -102.888 -60.5907 -91.5662 148.213 64.9553 -159.651 -12.017 40.1805 -5.51337 
0.00085237 32.8113 -54.9734 0 70.9928 -0 -3.49386 5.24825 0.222161 -7.05275 10.4729 0.771527 -7.05275 10.4729 0.771528 -10.9299 -46.0533 -7.72958 -17.7442 -5.60465 -2.93272 3.54413 -34.4106 -2.39865 -77.6101 -14.9913 -75.2807 60.3569 -7.41401 -84.2517 -47.6357 -38.744 -0.47722 -1.59028e-015 1.11319e-014 6.36111e-015 -1.59028e-015 5.56597e-015 -0 0 8.74653e-015 -0 1.59028e-015 -7.95139e-016 3.18055e-015 4.77083e-015 1.59028e-014 -0 -3.08973e-031 5.56597e-015 3.18055e-015 1.59028e-015 1.11319e-014 -0 4.77083e-015 1.59028e-014 -0 -3.08973e-031 5.56597e-015 3.18055e-015 1.59028e-015 1.11319e-014 -0 1.59028e-015 -7.95139e-016 3.18055e-015 4.77083e-015 1.59028e-014 -0 -3.08973e-031 5.56597e-015 3.18055e-015 1.59028e-015 1.11319e-014 -0 4.77083e-015 1.59028e-014 -0 -3.08973e-031 5.56597e-015 3.18055e-015 1.59028e-015 1.11319e-014 -0 -1.42292 -4.44923 22.0708 82.5211 -18.3076 83.3974 -63.9294 -33.0346 65.5297 15.2682 -23.6969 -23.5378 -1.03509e-006 4.05259e-006 -5.9735e-007 2.54384e-006 -1.50875e-006 -8.71155e-007 1.66836e-006 1.91711e-006 -4.13604e-006 1.41712e-015 1.8772e-015 -6.36111e-015 -1.03509e-006 4.05259e-006 -5.9735e-007 2.54384e-006 -1.50875e-006 -8.71155e-007 1.66836e-006 1.91711e-006 -4.13604e-006 -1.03509e-006 4.05259e-006 -5.9735e-007 2.54384e-006 -1.50875e-006 -8.71155e-007 1.66836e-006 1.91711e-006 -4.13604e-006 1.41712e-015 1.8772e-015 -6.36111e-015 -1.03509e-006 4.05259e-006 -5.9735e-007 2.54384e-006 -1.50875e-006 -8.71155e-007 1.66836e-006 1.91711e-006 -4.13604e-006 -1.03509e-006 4.05259e-006 -5.9735e-007 2.54384e-006 -1.50875e-006 -8.71155e-007 1.66836e-006 1.91711e-006 -4.13604e-006 102.818 -60.6515 91.4935 -148.111 64.9501 159.569 12.052 39.5561 5.47012 -102.722 -60.6149 -91.4056 148.095 65.0093 -159.538 -12.0166 40.1715 -5.5098 
0.000863696 32.7888 -55.0259 0 70.9928 -0 -3.49331 5.21403 0.21879 -7.05062 10.4047 0.762475 -7.05062 10.4047 0.762477 -10.9116 -45.9624 -7.7043 -17.7488 -5.7556 -2.98124 3.54756 -34.3358 -2.51624 -77.7274 -15.0726 -75.233 60.434 -7.18595 -84.0931 -47.5831 -38.642 -0.612132 -0 -2.38542e-015 -0 0 7.95139e-016 -0 0 4.77083e-015 -0 -0 -2.38542e-015 -0 4.77083e-015 1.35174e-014 3.18055e-015 -0 -1.59028e-015 -0 0 0 -0 4.77083e-015 1.35174e-014 3.18055e-015 -0 -1.59028e-015 -0 0 0 -0 -0 -2.38542e-015 -0 4.77083e-015 1.35174e-014 3.18055e-015 -0 -1.59028e-015 -0 0 0 -0 4.77083e-015 1.35174e-014 3.18055e-015 -0 -1.59028e-015 -0 0 0 -0 -1.41125 -4.34431 22.1126 82.4895 -18.2874 83.3994 -63.934 -33.115 65.5913 15.3274 -23.641 -23.6709 -3.93174e-007 2.33615e-007 -3.88854e-006 6.59642e-006 -4.73523e-007 -3.21083e-006 -3.92134e-016 -7.89975e-015 -0 -1.55301e-016 1.16475e-016 3.18055e-015 -3.93174e-007 2.33615e-007 -3.88854e-006 6.59642e-006 -4.73523e-007 -3.21083e-006 -5.87036e-016 -7.68466e-015 6.36111e-015 -3.93174e-007 2.33615e-007 -3.88854e-006 6.59642e-006 -4.73523e-007 -3.21083e-006 -5.87036e-016 -7.68466e-015 6.36111e-015 -1.55301e-016 1.16475e-016 3.18055e-015 -3.93174e-007 2.33615e-007 -3.88854e-006 6.59642e-006 -4.73523e-007 -3.21083e-006 -5.87036e-016 -7.68466e-015 6.36111e-015 -3.93174e-007 2.33615e-007 -3.88854e-006 6.59642e-006 -4.73523e-007 -3.21083e-006 -5.87036e-016 -7.68466e-015 6.36111e-015 102.985 -60.6269 91.6549 -148.23 64.8956 159.682 12.0524 39.5651 5.47373 -102.888 -60.5908 -91.5663 148.214 64.9553 -159.651 -12.017 40.1805 -5.51338 
0.00088784 32.7392 -55.1414 0 70.9928 -0 -3.49222 5.13864 0.21138 -7.04616 10.2547 0.742611 -7.04616 10.2547 0.742609 -10.8719 -45.7625 -7.64902 -17.7599 -6.08765 -3.08813 3.55619 -34.1711 -2.77438 -77.9855 -15.2516 -75.1282 60.5998 -6.69534 -83.737 -47.4655 -38.418 -0.908113 3.18055e-015 -6.36111e-015 -3.18055e-015 7.94503e-031 -1.43125e-014 3.18055e-015 1.59028e-015 -7.95139e-015 3.18055e-015 3.18055e-015 -1.59028e-015 -6.36111e-015 1.59028e-015 1.03368e-014 1.59028e-014 1.59028e-015 -4.77083e-015 3.18055e-015 1.59028e-015 -5.56597e-015 -3.18055e-015 1.59028e-015 1.03368e-014 1.59028e-014 1.59028e-015 -4.77083e-015 3.18055e-015 1.59028e-015 -5.56597e-015 -3.18055e-015 3.18055e-015 -1.59028e-015 -6.36111e-015 1.59028e-015 1.03368e-014 1.59028e-014 1.59028e-015 -4.77083e-015 3.18055e-015 1.59028e-015 -5.56597e-015 -3.18055e-015 1.59028e-015 1.03368e-014 1.59028e-014 1.59028e-015 -4.77083e-015 3.18055e-015 1.59028e-015 -5.56597e-015 -3.18055e-015 -1.38603 -4.11368 22.2045 82.4199 -18.243 83.4038 -63.9436 -33.2914 65.7283 15.458 -23.5176 -23.9637 -2.47704e-016 -6.46982e-015 -0 -6.36732e-016 -2.50034e-015 -3.18055e-015 -2.61837e-015 -6.94193e-016 -0 1.34257e-015 1.90981e-015 -0 4.52468e-015 -3.30247e-015 3.18055e-015 -1.64463e-015 -8.57375e-015 -0 -2.46928e-016 5.82377e-018 -3.18055e-015 4.52468e-015 -3.30247e-015 3.18055e-015 -1.64463e-015 -8.57375e-015 -0 -2.46928e-016 5.82377e-018 -3.18055e-015 1.34257e-015 1.90981e-015 -0 4.52468e-015 -3.30247e-015 3.18055e-015 -1.64463e-015 -8.57375e-015 -0 -2.46928e-016 5.82377e-018 -3.18055e-015 4.52468e-015 -3.30247e-015 3.18055e-015 -1.64463e-015 -8.57375e-015 -0 -2.46928e-016 5.82377e-018 -3.18055e-015 103.352 -60.5722 92.0089 -148.49 64.7755 159.929 12.0533 39.5851 5.4817 -103.254 -60.537 -91.9184 148.473 64.836 -159.898 -12.0177 40.2002 -5.52133 
